<svg opacity="1" version="1.1" viewBox="0 0 800 800" xmlns="http://www.w3.org/2000/svg">
  <defs>
    <linearGradient id="uundulate-grad" x1="50%" x2="50%" y1="0%" y2="100%">
      <stop offset="45%" stop-color="hsl(88, 92%, 24%)" stop-opacity="1"></stop>
      <stop offset="100%" stop-color="hsl(0, 0%, 100%)" stop-opacity="1"></stop>
    </linearGradient>
  </defs>
  <g fill="none" stroke="url(#uundulate-grad)" stroke-width="2">
    <path
      d="M723.035646043822 132.8013604645646C780.7931621208006 281.53063524947447 718.1489750842859 618.4720198225388 610.7952112569824 736.503783486136C503.44144742967876 854.5355471497332 322.23417233364125 785.7004414934754 207.73757967276651 699.3538260498296C93.24098701189172 613.007210606184 34.99874264838371 463.0297296756504 61.21156648478359 322.04002935663766C87.42439032118352 181.05032903762515 195.67911751268548 62.02798720441882 333.5591340874853 22.603264518570143C471.4391506622851 -16.821458167278593 665.2781299668433 -15.927914320345224 723.035646043822 132.8013604645646C780.7931621208006 281.53063524947447 718.1489750842859 618.4720198225388 610.7952112569824 736.503783486136 "></path>
    <path
      d="M708.99068297067 144.418679349767C764.2370026964757 286.6814639266372 704.3164759658965 608.9732230834813 601.6302670876061 721.8731709356177C498.9440582093157 834.7731187877544 325.61536029136676 768.9308438122034 216.09688035487784 686.3384290400204C106.57840041838898 603.7460142678377 50.8684275489465 460.2892933777621 75.94156339245944 325.42958002914133C101.01469923597239 190.56986668052048 204.5626991582787 76.72240927484495 336.4479324037393 39.01180496664182C468.33316564920005 1.3012006584386882 653.7443632448644 2.1558947728967155 708.99068297067 144.418679349767C764.2370026964757 286.6814639266372 704.3164759658965 608.9732230834813 601.6302670876061 721.8731709356177 "></path>
    <path
      d="M694.9456283447837 156.03599823496933C747.6807517194165 291.83229260379994 690.4838852947726 599.4744263444239 592.4652313654955 707.2425583850995C494.44657743621826 815.0106904257755 328.9964566963579 752.1612461309314 224.4560894842549 673.3230320302113C119.91572227215181 594.4848179294914 66.73802089677491 457.54885707987364 90.67146874740092 328.8191307016448C114.60491659802693 200.08940432341592 213.44618925113747 91.41683134527102 339.3366391672589 55.420345414713495C465.2270890833805 19.42385948415597 642.2105049701511 20.239703866138598 694.9456283447837 156.03599823496933C747.6807517194165 291.83229260379994 690.4838852947726 599.4744263444239 592.4652313654955 707.2425583850995 "></path>
    <path
      d="M680.9005737188975 167.65331712017166C731.1245007423572 296.9831212809629 676.6512946236487 589.9756296053666 583.3001956433848 692.6119458345817C489.9490966631208 795.2482620637966 332.3775531013491 735.3916484496594 232.81529861363185 660.3076350204024C133.2530441259147 585.2236215911452 82.60761424460338 454.80842078198543 105.4013741023424 332.20868137414834C128.19513396008142 209.60894196631125 222.32967934399625 106.11125341569709 342.22534593077864 71.82888586278517C462.1210125175611 37.54651830987325 630.6766466954377 38.32351295938054 680.9005737188975 167.65331712017166C731.1245007423572 296.9831212809629 676.6512946236487 589.9756296053666 583.3001956433848 692.6119458345817 "></path>
    <path
      d="M666.8555801281675 179.2706970405303C714.5683108004541 302.1340109932819 662.8187649876812 580.4768939014655 574.1352209564304 677.9813943192197C485.45167692517964 775.4858947369739 335.7587105414965 718.6221118035436 241.17456877816517 647.2922990457494C146.59042701483378 575.962486287955 98.47726862758805 452.06804551925336 120.13134049244013 335.59829308180815C141.78541235729222 219.12854064436283 231.21323047201128 120.80573652127941 345.11411372945463 88.2374873460131C459.0149969868978 55.66923817074672 619.1428494558807 56.40738308777867 666.8555801281675 179.2706970405303C714.5683108004541 302.1340109932819 662.8187649876812 580.4768939014655 574.1352209564304 677.9813943192197 "></path>
    <path
      d="M652.8105255022812 190.88801592573265C698.0120598233949 307.2848396704446 648.9861743165574 570.9780971624081 564.9701852343197 663.3507817687016C480.9541961520822 755.723466374995 339.1398069464876 701.8525141222716 249.53377790754212 634.2769020359402C159.92774886859667 566.7012899496087 114.34686197541646 449.32760922136504 134.8612458473816 338.9878437543116C155.37562971934676 228.64807828725827 240.09672056487005 135.50015859170549 348.00282049297425 104.64602779408477C455.9089204210784 73.791896996464 607.6089911811674 74.49119218102061 652.8105255022812 190.88801592573265C698.0120598233949 307.2848396704446 648.9861743165574 570.9780971624081 564.9701852343197 663.3507817687016 "></path>
    <path
      d="M638.7655319115511 202.50533481093498C681.4558698814918 312.4356683476075 635.1536446805897 561.4793004233507 555.8052105473654 648.7201692181834C476.456776414141 735.9610380130163 342.520964386635 685.0829164409996 257.8930480720754 621.261505026131C173.26513175751575 557.4400936112625 130.21651635840112 446.5871729234766 149.59121223747934 342.37739442681516C168.9659081165575 238.1676159301536 248.98027169288508 150.1945806621316 350.8915882916501 121.05456824215645C452.8029048904152 91.91455582218128 596.0751939416105 92.57500127426249 638.7655319115511 202.50533481093498C681.4558698814918 312.4356683476075 635.1536446805897 561.4793004233507 555.8052105473654 648.7201692181834 "></path>
    <path
      d="M624.720507803243 214.1226842137155C664.8996494220107 317.58652754234845 621.3210845270439 551.9805342018715 546.6402053428328 634.0895871852434C471.9593261586217 716.1986401686154 345.90209130920425 668.3133492773056 266.2522877190305 608.2461385339C186.60248412885676 548.1789277904942 146.08614022380772 443.8467671431665 164.32114810999894 345.76697561689684C182.55615599619017 247.6871840906271 257.863792303322 164.8890332501358 353.78032557274787 137.46313920780625C449.6968588421739 110.03724516547669 584.5413661844752 110.65884088508255 624.720507803243 214.1226842137155C664.8996494220107 317.58652754234845 621.3210845270439 551.9805342018715 546.6402053428328 634.0895871852434 "></path>
    <path
      d="M610.6754531773568 225.74000309891784C648.3433984449515 322.7373562195112 607.4884938559202 542.481737462814 537.4751696207222 619.4589746347253C467.46184538552416 696.4362118066365 349.2831877141954 651.5437515960336 274.6114968484075 595.2307415240907C199.9398059826196 538.9177314521478 161.95573357163613 441.1063308452781 179.05105346494042 349.1565262894003C196.14637335824466 257.2067217335225 266.74728239618076 179.58345532056188 356.6690323362676 153.87167965587793C446.5907822763544 128.15990399119397 573.0075079097619 128.74264997832444 610.6754531773568 225.74000309891784C648.3433984449515 322.7373562195112 607.4884938559202 542.481737462814 537.4751696207222 619.4589746347253 "></path>
    <path
      d="M596.6304290690485 237.3573525016983C631.7871779854703 327.88821541425204 593.6559337023745 532.9829712413348 528.3101644161897 604.8283926017853C462.96439513000496 676.6738139622357 352.66431463676463 634.7741844323398 282.97073649536264 582.2153750318597C213.2771583539606 529.6565656313797 177.82535743704267 438.3659250649679 193.78098933745997 352.546107479482C209.73662123787733 266.726289893996 275.63080300661767 194.27790790856608 359.55776961736535 170.28025062152773C443.4847362281131 146.28259333448938 561.4736801526268 146.8264895891445 596.6304290690485 237.3573525016983C631.7871779854703 327.88821541425204 593.6559337023745 532.9829712413348 528.3101644161897 604.8283926017853 "></path>
    <path
      d="M582.5853897019513 248.97467138690064C615.2309422672001 333.0390440914149 579.8233582900396 523.4841745022773 519.145143952868 590.197780051267C458.4669296156965 656.9113856002568 356.04542630054493 618.0045867510677 291.32996088352866 569.1999780220506C226.6144954665125 520.3953692930334 193.69496604366014 435.62548876707956 208.5109099511905 355.93565815198554C223.32685385872094 276.2458275368914 284.5143083582655 208.97232997899215 362.44649163967415 186.6887910695994C440.3786749210826 164.40525216020666 549.9398371367025 164.91029868238638 582.5853897019513 248.97467138690064C615.2309422672001 333.0390440914149 579.8233582900396 523.4841745022773 519.145143952868 590.197780051267 "></path>
    <path
      d="M568.5403655936432 260.591990272103C598.6747218077189 338.18987276857774 565.9907981364939 513.98537776322 509.98013874833555 575.5671675007488C453.96947936017716 637.148957238278 359.4265532231141 601.2349890697956 299.68920053048384 556.1845810122413C239.9518478378535 511.1341729546871 209.56458990906668 432.88505246919124 223.24084582371012 359.325208824489C236.91710173835355 285.7653651797867 293.3978289687024 223.66675204941828 365.3352289207719 203.09733151767108C437.2726288728413 182.52791098592394 538.4060093795674 182.99410777562832 568.5403655936432 260.591990272103C598.6747218077189 338.18987276857774 565.9907981364939 513.98537776322 509.98013874833555 575.5671675007488 "></path>
    <path
      d="M554.4953414853351 272.2093396748835C582.1185013482378 343.3407319633186 552.1582379829483 504.4866115417407 500.8151335438031 560.9365854678089C449.47202910465785 617.3865593938772 362.8076801456834 584.4654219061017 308.0484401774389 543.1692145200102C253.28920020919446 501.8730071339189 225.43421377447328 430.14464668888104 237.97078169622972 362.71479001457067C250.50734961798622 295.28493334026024 302.2813495791394 238.36120463742247 368.22396620186964 219.50590248332088C434.1665828246 200.65060032921934 526.8721816224322 201.07794738644833 554.4953414853351 272.2093396748835C582.1185013482378 343.3407319633186 552.1582379829483 504.4866115417407 500.8151335438031 560.9365854678089 "></path>
    <path
      d="M540.4503021182378 283.82665856008583C565.5622656299677 348.49156064048145 538.3256625706134 494.98781480268326 491.65011308048145 546.3059729172908C444.9745635903495 597.6241310318983 366.1887918094636 567.6958242248297 316.407664565605 530.1538175102012C266.6265373217464 492.61181079557264 241.30382238109075 427.4042103909927 252.70070230996026 366.10434068707417C264.0975822388298 304.8044709831556 311.16485493078716 253.05562670784855 371.1126882241784 235.91444293139256C431.06052151756967 218.77325915493662 515.3383386065079 219.16175647969027 540.4503021182378 283.82665856008583C565.5622656299677 348.49156064048145 538.3256625706134 494.98781480268326 491.65011308048145 546.3059729172908 "></path>
    <path
      d="M526.4052627511405 295.4440079628663C549.0060299116974 353.6424198352223 524.4930871582787 485.4890485812041 482.4850926171598 531.6753908843508C440.4770980760411 577.8617331874975 369.5699034732438 550.9262570611359 324.76688895377106 517.13845101797C279.9638744342983 483.35064497480437 257.17343098770823 424.6638046106825 267.4306229236908 369.4939218771558C277.6878148596734 314.32403914362914 320.04836028243506 267.75007929585274 374.0014102464871 252.32301389704236C427.9544602105392 236.89594849823203 503.80449559058366 237.24559609051028 526.4052627511405 295.4440079628663C549.0060299116974 353.6424198352223 524.4930871582787 485.4890485812041 482.4850926171598 531.6753908843508 "></path>
    <path
      d="M512.3602539016215 307.0613268480687C532.4498247110054 358.79324851238516 510.66054226352196 475.9902518421467 473.3201026714164 517.0447783338327C435.97966307931085 558.0993048255186 372.9510456546021 534.1566593798638 333.12614385951525 504.1230540081609C293.3012420644284 474.089448636458 273.04307011190383 421.9233683127942 282.1605740549995 372.88347254965936C291.27807799809506 323.8435767865245 328.931896151661 282.4445013662788 376.89016278637393 268.7315543451141C424.84842942108696 255.0186073239493 492.2706830922376 255.32940518375221 512.3602539016215 307.0613268480687C532.4498247110054 358.79324851238516 510.66054226352196 475.9902518421467 473.3201026714164 517.0447783338327 "></path>
    <path
      d="M498.3152297933134 318.67867625084915C515.8936042515243 363.944107707126 496.82798210997635 466.4914856206674 464.15509746688394 502.4141963008926C431.48221282379154 538.3369069811179 376.3321725771714 517.3870922161699 341.4853835064704 491.1076875159299C306.63859443576933 464.8282828156898 288.91269397731037 419.18296253248394 296.8905099275191 376.273053739741C304.8683258777277 333.363144946998 337.8154167620979 297.13895395428307 379.77890006747174 285.1401253107639C421.7423833728456 273.1412966672447 480.7368553351025 273.4132447945722 498.3152297933134 318.67867625084915C515.8936042515243 363.944107707126 496.82798210997635 466.4914856206674 464.15509746688394 502.4141963008926 "></path>
    <path
      d="M484.27017516742706 330.29601039484055C499.33735327446493 369.09495164307793 482.9953914388525 456.99270414039904 454.99006174477324 487.7835990091635C426.98473205069405 518.574493877928 379.7132689821625 500.61750979368685 349.8445926358474 478.0923057649097C319.9759162895322 455.5671017361326 304.78228732513884 416.4425414933847 311.62041528246056 379.66261967103355C318.4585432397823 342.8826978486824 346.6989068549567 311.8333912834982 382.6676068309914 301.54868101762463C418.63630680702613 291.263970751751 469.2029970603892 291.4970691466032 484.27017516742706 330.29601039484055C499.33735327446493 369.09495164307793 482.9953914388525 456.99270414039904 454.99006174477324 487.7835990091635 "></path>
    <path
      d="M470.22515105911884 341.9133140212539C482.78113281498383 374.24576506145166 469.16283128530677 447.49389214255257 445.8250565402407 473.1529711998563C422.48728179517474 498.8120502571601 383.0943959047318 483.8478968536258 358.2038322828025 465.0768934963115C333.3132686608732 446.30589013899726 320.6519111905454 413.7020899367073 326.35035115498016 383.05215508474805C332.0487911194149 352.40222023278875 355.5824274653936 326.5277980951352 385.5563441120892 317.95720620690724C415.53026075878483 309.3866143186792 457.66916930325397 309.58086298105604 470.22515105911884 341.9133140212539C482.78113281498383 374.24576506145166 469.16283128530677 447.49389214255257 445.8250565402407 473.1529711998563 "></path>
    <path
      d="M456.1801116920217 353.53066342403434C466.2248970967136 379.3966242561926 455.3302558729719 437.99512592107334 436.66003607691914 458.52238916691635C417.98981628086636 479.0496524127593 386.475507568512 467.0783296899319 366.56305667096854 452.06152700408046C346.6506057734251 437.044724318229 336.52151979716285 410.9616841563971 341.08027176871065 386.4417362748297C345.6390237402585 361.92178839326226 364.46593281704145 341.2222506831394 388.4450661343979 334.36577717255705C412.4241994517544 327.5093036619746 446.13532628732975 327.6647025918761 456.1801116920217 353.53066342403434C466.2248970967136 379.3966242561926 455.3302558729719 437.99512592107334 436.66003607691914 458.52238916691635 "></path>
    <path
      d="M442.1351028425026 365.14799756802574C449.6686918960215 384.54746819214444 441.4977109782153 428.496344440805 427.4950461311757 443.8917918751872C413.4923812841361 459.2872393095695 389.8566497498703 450.3087472674489 374.92231157671273 439.04614525306033C359.98797340355515 427.78354323867177 352.39115892135845 408.2212631172978 355.8102229000193 389.83130220612225C359.22928687868017 371.4413412949467 373.3494686862674 355.91668801235454 391.33381867428477 350.7743328794178C409.3181686623021 345.63197774648097 434.60151378898365 345.74852694390705 442.1351028425026 365.14799756802574C449.6686918960215 384.54746819214444 441.4977109782153 428.496344440805 427.4950461311757 443.8917918751872 "></path>
    <path
      d="M428.0900482166163 376.76533171201714C433.1124409189623 389.6983121280963 427.66512030709146 418.99756296053664 418.33001040906504 429.2611945834582C408.9949005110386 439.52482620637966 393.2377461548615 433.53916484496597 383.28152070608974 426.03076350204026C373.32529525731803 418.5223621591145 368.2607522691869 405.4808420781985 370.5401282549608 393.2208681374148C372.8195042407347 380.9608941966311 382.2329587791262 370.61112534156973 394.22252543780445 367.1828885862785C406.21209209648265 363.7546518309873 423.0676555142703 363.83235129593805 428.0900482166163 376.76533171201714C433.1124409189623 389.6983121280963 427.66512030709146 418.99756296053664 418.33001040906504 429.2611945834582 "></path>
    <path
      d="M414.0450393670972 388.3826658560086C416.5562357182702 394.84915606404815 413.8325754123348 409.49878148026835 409.1650204633216 414.6305972917291C404.4974655143084 419.76241310318983 396.6188883362198 416.769582422483 391.64077561183393 413.01538175102013C386.66266288744805 409.2611810795573 384.1303913933825 402.74042103909926 385.27007938626946 396.61043406870743C386.4097673791564 390.48044709831555 391.11649464835216 385.30556267078487 397.11127797769126 383.59144429313926C403.1060613070304 381.87732591549366 411.5338430159242 381.916175647969 414.0450393670972 388.3826658560086C416.5562357182702 394.84915606404815 413.8325754123348 409.49878148026835 409.1650204633216 414.6305972917291 "></path>
  </g>
</svg>
