<svg xmlns="http://www.w3.org/2000/svg" version="1.1" xmlns:xlink="http://www.w3.org/1999/xlink" xmlns:svgjs="http://svgjs.dev/svgjs" width="1500" height="1500" viewBox="0 0 1500 1500"><rect width="1500" height="1500" fill="#ffffff"></rect><g transform="matrix(0.6666666666666666,0,0,0.6666666666666666,249.39393939393938,435.99032258064517)"><svg viewBox="0 0 396 248" data-background-color="#ffffff" preserveAspectRatio="xMidYMid meet" height="939" width="1500" xmlns="http://www.w3.org/2000/svg" xmlns:xlink="http://www.w3.org/1999/xlink"><g id="tight-bounds" transform="matrix(1,0,0,1,0.2400000000000091,0.4000000000000057)"><svg viewBox="0 0 395.52 247.2" height="247.2" width="395.52"><g><svg></svg></g><g><svg viewBox="0 0 395.52 247.2" height="247.2" width="395.52"><g transform="matrix(1,0,0,1,75.54432,103.97821651376147)"><svg viewBox="0 0 244.43135999999998 39.24356697247706" height="39.24356697247706" width="244.43135999999998"><g><svg viewBox="0 0 244.43135999999998 39.24356697247706" height="39.24356697247706" width="244.43135999999998"><g><svg viewBox="0 0 244.43135999999998 39.24356697247706" height="39.24356697247706" width="244.43135999999998"><g id="textblocktransform"><svg viewBox="0 0 244.43135999999998 39.24356697247706" height="39.24356697247706" width="244.43135999999998" id="textblock"><g><svg viewBox="0 0 244.43135999999998 39.24356697247706" height="39.24356697247706" width="244.43135999999998"><g transform="matrix(1,0,0,1,0,0)"><svg width="244.43135999999998" viewBox="3.8 -28 174.38 28" height="39.24356697247706" data-palette-color="#000000"><path d="M16-16Q16.2-15.2 16.2-14L16.2-14Q16.2-12.85 16-12L16-12 8-12Q8.2-11.2 8.2-10L8.2-10Q8.2-8.85 8-8L8-8Q8.2-7.2 8.2-6L8.2-6Q8.2-4.85 8-4L8-4Q8.2-3.2 8.2-2L8.2-2Q8.2-0.85 8 0L8 0 4 0Q3.8-0.85 3.8-2L3.8-2Q3.8-3.2 4-4L4-4Q3.8-4.85 3.8-6L3.8-6Q3.8-7.2 4-8L4-8Q3.8-8.85 3.8-10L3.8-10Q3.8-11.2 4-12L4-12Q3.8-12.85 3.8-14L3.8-14Q3.8-15.2 4-16L4-16Q3.8-16.85 3.8-18L3.8-18Q3.8-19.2 4-20L4-20Q3.8-20.85 3.8-22L3.8-22Q3.8-23.2 4-24L4-24Q3.8-24.85 3.8-26L3.8-26Q3.8-27.2 4-28L4-28 16-28Q16.2-27.2 16.2-26L16.2-26Q16.2-24.85 16-24L16-24 8-24Q8.2-23.2 8.2-22L8.2-22Q8.2-20.85 8-20L8-20Q8.2-19.2 8.2-18L8.2-18Q8.2-16.85 8-16L8-16 16-16ZM36.5-4L38-4Q38.2-3.2 38.2-2L38.2-2Q38.2-0.85 38 0L38 0 34 0Q33.8-0.85 33.8-2L33.8-2Q33.8-3.2 34-4L34-4 32.5-4Q32.3-4.85 32.3-6L32.3-6Q32.3-7.2 32.5-8L32.5-8 31.5-8Q31.3-8.85 31.3-10L31.3-10Q31.3-11.2 31.5-12L31.5-12 28.5-12Q28.7-11.2 28.7-10L28.7-10Q28.7-8.85 28.5-8L28.5-8 27.5-8Q27.7-7.2 27.7-6L27.7-6Q27.7-4.85 27.5-4L27.5-4 26-4Q26.2-3.2 26.2-2L26.2-2Q26.2-0.85 26 0L26 0 22 0Q21.8-0.85 21.8-2L21.8-2Q21.8-3.2 22-4L22-4 23.5-4Q23.3-4.85 23.3-6L23.3-6Q23.3-7.2 23.5-8L23.5-8 25.5-8Q25.3-8.85 25.3-10L25.3-10Q25.3-11.2 25.5-12L25.5-12 27-12Q26.8-12.85 26.8-14L26.8-14Q26.8-15.2 27-16L27-16 25.5-16Q25.3-16.85 25.3-18L25.3-18Q25.3-19.2 25.5-20L25.5-20 23.5-20Q23.3-20.85 23.3-22L23.3-22Q23.3-23.2 23.5-24L23.5-24 22-24Q21.8-24.85 21.8-26L21.8-26Q21.8-27.2 22-28L22-28 26-28Q26.2-27.2 26.2-26L26.2-26Q26.2-24.85 26-24L26-24 27.5-24Q27.7-23.2 27.7-22L27.7-22Q27.7-20.85 27.5-20L27.5-20 28.5-20Q28.7-19.2 28.7-18L28.7-18Q28.7-16.85 28.5-16L28.5-16 31.5-16Q31.3-16.85 31.3-18L31.3-18Q31.3-19.2 31.5-20L31.5-20 32.5-20Q32.3-20.85 32.3-22L32.3-22Q32.3-23.2 32.5-24L32.5-24 34-24Q33.8-24.85 33.8-26L33.8-26Q33.8-27.2 34-28L34-28 38-28Q38.2-27.2 38.2-26L38.2-26Q38.2-24.85 38-24L38-24 36.5-24Q36.7-23.2 36.7-22L36.7-22Q36.7-20.85 36.5-20L36.5-20 34.5-20Q34.7-19.2 34.7-18L34.7-18Q34.7-16.85 34.5-16L34.5-16 33-16Q33.2-15.2 33.2-14L33.2-14Q33.2-12.85 33-12L33-12 34.5-12Q34.7-11.2 34.7-10L34.7-10Q34.7-8.85 34.5-8L34.5-8 36.5-8Q36.7-7.2 36.7-6L36.7-6Q36.7-4.85 36.5-4L36.5-4ZM77.99-12Q78.19-11.2 78.19-10L78.19-10Q78.19-8.85 77.99-8L77.99-8Q78.19-7.2 78.19-6L78.19-6Q78.19-4.85 77.99-4L77.99-4 75.99-4Q76.19-3.2 76.19-2L76.19-2Q76.19-0.85 75.99 0L75.99 0 63.99 0Q63.79-0.85 63.79-2L63.79-2Q63.79-3.2 63.99-4L63.99-4 61.99-4Q61.79-4.85 61.79-6L61.79-6Q61.79-7.2 61.99-8L61.99-8 65.99-8Q66.19-7.2 66.19-6L66.19-6Q66.19-4.85 65.99-4L65.99-4 73.99-4Q73.79-4.85 73.79-6L73.79-6Q73.79-7.2 73.99-8L73.99-8Q73.79-8.85 73.79-10L73.79-10Q73.79-11.2 73.99-12L73.99-12 63.99-12Q63.79-12.85 63.79-14L63.79-14Q63.79-15.2 63.99-16L63.99-16 61.99-16Q61.79-16.85 61.79-18L61.79-18Q61.79-19.2 61.99-20L61.99-20Q61.79-20.85 61.79-22L61.79-22Q61.79-23.2 61.99-24L61.99-24 63.99-24Q63.79-24.85 63.79-26L63.79-26Q63.79-27.2 63.99-28L63.99-28 75.99-28Q76.19-27.2 76.19-26L76.19-26Q76.19-24.85 75.99-24L75.99-24 77.99-24Q78.19-23.2 78.19-22L78.19-22Q78.19-20.85 77.99-20L77.99-20 73.99-20Q73.79-20.85 73.79-22L73.79-22Q73.79-23.2 73.99-24L73.99-24 65.99-24Q66.19-23.2 66.19-22L66.19-22Q66.19-20.85 65.99-20L65.99-20Q66.19-19.2 66.19-18L66.19-18Q66.19-16.85 65.99-16L65.99-16 75.99-16Q76.19-15.2 76.19-14L76.19-14Q76.19-12.85 75.99-12L75.99-12 77.99-12ZM98.19-26Q98.19-24.85 97.99-24L97.99-24 91.99-24Q92.19-23.2 92.19-22L92.19-22Q92.19-20.85 91.99-20L91.99-20Q92.19-19.2 92.19-18L92.19-18Q92.19-16.85 91.99-16L91.99-16Q92.19-15.2 92.19-14L92.19-14Q92.19-12.85 91.99-12L91.99-12Q92.19-11.2 92.19-10L92.19-10Q92.19-8.85 91.99-8L91.99-8Q92.19-7.2 92.19-6L92.19-6Q92.19-4.85 91.99-4L91.99-4Q92.19-3.2 92.19-2L92.19-2Q92.19-0.85 91.99 0L91.99 0 87.99 0Q87.79-0.85 87.79-2L87.79-2Q87.79-3.2 87.99-4L87.99-4Q87.79-4.85 87.79-6L87.79-6Q87.79-7.2 87.99-8L87.99-8Q87.79-8.85 87.79-10L87.79-10Q87.79-11.2 87.99-12L87.99-12Q87.79-12.85 87.79-14L87.79-14Q87.79-15.2 87.99-16L87.99-16Q87.79-16.85 87.79-18L87.79-18Q87.79-19.2 87.99-20L87.99-20Q87.79-20.85 87.79-22L87.79-22Q87.79-23.2 87.99-24L87.99-24 81.99-24Q81.79-24.85 81.79-26L81.79-26Q81.79-27.2 81.99-28L81.99-28 97.99-28Q98.19-27.2 98.19-26L98.19-26ZM118.19-6Q118.19-4.85 117.99-4L117.99-4Q118.19-3.2 118.19-2L118.19-2Q118.19-0.85 117.99 0L117.99 0 113.99 0Q113.79-0.85 113.79-2L113.79-2Q113.79-3.2 113.99-4L113.99-4Q113.79-4.85 113.79-6L113.79-6Q113.79-7.2 113.99-8L113.99-8 105.99-8Q106.19-7.2 106.19-6L106.19-6Q106.19-4.85 105.99-4L105.99-4Q106.19-3.2 106.19-2L106.19-2Q106.19-0.85 105.99 0L105.99 0 101.99 0Q101.79-0.85 101.79-2L101.79-2Q101.79-3.2 101.99-4L101.99-4Q101.79-4.85 101.79-6L101.79-6Q101.79-7.2 101.99-8L101.99-8 103.49-8Q103.29-8.85 103.29-10L103.29-10Q103.29-11.2 103.49-12L103.49-12Q103.29-12.85 103.29-14L103.29-14Q103.29-15.2 103.49-16L103.49-16 104.49-16Q104.29-16.85 104.29-18L104.29-18Q104.29-19.2 104.49-20L104.49-20 105.99-20Q105.79-20.85 105.79-22L105.79-22Q105.79-23.2 105.99-24L105.99-24 106.99-24Q106.79-24.85 106.79-26L106.79-26Q106.79-27.2 106.99-28L106.99-28 112.99-28Q113.19-27.2 113.19-26L113.19-26Q113.19-24.85 112.99-24L112.99-24 113.99-24Q114.19-23.2 114.19-22L114.19-22Q114.19-20.85 113.99-20L113.99-20 115.49-20Q115.69-19.2 115.69-18L115.69-18Q115.69-16.85 115.49-16L115.49-16 116.49-16Q116.69-15.2 116.69-14L116.69-14Q116.69-12.85 116.49-12L116.49-12Q116.69-11.2 116.69-10L116.69-10Q116.69-8.85 116.49-8L116.49-8 117.99-8Q118.19-7.2 118.19-6L118.19-6ZM112.49-12Q112.29-12.85 112.29-14L112.29-14Q112.29-15.2 112.49-16L112.49-16 111.49-16Q111.29-16.85 111.29-18L111.29-18Q111.29-19.2 111.49-20L111.49-20 108.49-20Q108.69-19.2 108.69-18L108.69-18Q108.69-16.85 108.49-16L108.49-16 107.49-16Q107.69-15.2 107.69-14L107.69-14Q107.69-12.85 107.49-12L107.49-12 112.49-12ZM138.19-26Q138.19-24.85 137.99-24L137.99-24 131.99-24Q132.19-23.2 132.19-22L132.19-22Q132.19-20.85 131.99-20L131.99-20Q132.19-19.2 132.19-18L132.19-18Q132.19-16.85 131.99-16L131.99-16Q132.19-15.2 132.19-14L132.19-14Q132.19-12.85 131.99-12L131.99-12Q132.19-11.2 132.19-10L132.19-10Q132.19-8.85 131.99-8L131.99-8Q132.19-7.2 132.19-6L132.19-6Q132.19-4.85 131.99-4L131.99-4Q132.19-3.2 132.19-2L132.19-2Q132.19-0.85 131.99 0L131.99 0 127.99 0Q127.79-0.85 127.79-2L127.79-2Q127.79-3.2 127.99-4L127.99-4Q127.79-4.85 127.79-6L127.79-6Q127.79-7.2 127.99-8L127.99-8Q127.79-8.85 127.79-10L127.79-10Q127.79-11.2 127.99-12L127.99-12Q127.79-12.85 127.79-14L127.79-14Q127.79-15.2 127.99-16L127.99-16Q127.79-16.85 127.79-18L127.79-18Q127.79-19.2 127.99-20L127.99-20Q127.79-20.85 127.79-22L127.79-22Q127.79-23.2 127.99-24L127.99-24 121.99-24Q121.79-24.85 121.79-26L121.79-26Q121.79-27.2 121.99-28L121.99-28 137.99-28Q138.19-27.2 138.19-26L138.19-26ZM151.98-4L154.98-4Q155.18-3.2 155.18-2L155.18-2Q155.18-0.85 154.98 0L154.98 0 144.98 0Q144.78-0.85 144.78-2L144.78-2Q144.78-3.2 144.98-4L144.98-4 147.98-4Q147.78-4.85 147.78-6L147.78-6Q147.78-7.2 147.98-8L147.98-8Q147.78-8.85 147.78-10L147.78-10Q147.78-11.2 147.98-12L147.98-12Q147.78-12.85 147.78-14L147.78-14Q147.78-15.2 147.98-16L147.98-16Q147.78-16.85 147.78-18L147.78-18Q147.78-19.2 147.98-20L147.98-20Q147.78-20.85 147.78-22L147.78-22Q147.78-23.2 147.98-24L147.98-24 144.98-24Q144.78-24.85 144.78-26L144.78-26Q144.78-27.2 144.98-28L144.98-28 154.98-28Q155.18-27.2 155.18-26L155.18-26Q155.18-24.85 154.98-24L154.98-24 151.98-24Q152.18-23.2 152.18-22L152.18-22Q152.18-20.85 151.98-20L151.98-20Q152.18-19.2 152.18-18L152.18-18Q152.18-16.85 151.98-16L151.98-16Q152.18-15.2 152.18-14L152.18-14Q152.18-12.85 151.98-12L151.98-12Q152.18-11.2 152.18-10L152.18-10Q152.18-8.85 151.98-8L151.98-8Q152.18-7.2 152.18-6L152.18-6Q152.18-4.85 151.98-4L151.98-4ZM173.98-8L177.98-8Q178.18-7.2 178.18-6L178.18-6Q178.18-4.85 177.98-4L177.98-4 175.98-4Q176.18-3.2 176.18-2L176.18-2Q176.18-0.85 175.98 0L175.98 0 165.98 0Q165.78-0.85 165.78-2L165.78-2Q165.78-3.2 165.98-4L165.98-4 163.98-4Q163.78-4.85 163.78-6L163.78-6Q163.78-7.2 163.98-8L163.98-8 161.98-8Q161.78-8.85 161.78-10L161.78-10Q161.78-11.2 161.98-12L161.98-12Q161.78-12.85 161.78-14L161.78-14Q161.78-15.2 161.98-16L161.98-16Q161.78-16.85 161.78-18L161.78-18Q161.78-19.2 161.98-20L161.98-20 163.98-20Q163.78-20.85 163.78-22L163.78-22Q163.78-23.2 163.98-24L163.98-24 165.98-24Q165.78-24.85 165.78-26L165.78-26Q165.78-27.2 165.98-28L165.98-28 175.98-28Q176.18-27.2 176.18-26L176.18-26Q176.18-24.85 175.98-24L175.98-24 177.98-24Q178.18-23.2 178.18-22L178.18-22Q178.18-20.85 177.98-20L177.98-20 173.98-20Q173.78-20.85 173.78-22L173.78-22Q173.78-23.2 173.98-24L173.98-24 167.98-24Q168.18-23.2 168.18-22L168.18-22Q168.18-20.85 167.98-20L167.98-20 165.98-20Q166.18-19.2 166.18-18L166.18-18Q166.18-16.85 165.98-16L165.98-16Q166.18-15.2 166.18-14L166.18-14Q166.18-12.85 165.98-12L165.98-12Q166.18-11.2 166.18-10L166.18-10Q166.18-8.85 165.98-8L165.98-8 167.98-8Q168.18-7.2 168.18-6L168.18-6Q168.18-4.85 167.98-4L167.98-4 173.98-4Q173.78-4.85 173.78-6L173.78-6Q173.78-7.2 173.98-8L173.98-8Z" opacity="1" transform="matrix(1,0,0,1,0,0)" fill="#000000" class="wordmark-text-0" data-fill-palette-color="primary" id="text-0"></path></svg></g></svg></g></svg></g></svg></g></svg></g></svg></g><path d="M182.985 97.978L182.985 35.512 6.808 35.512 6.808 211.688 182.985 211.688 182.985 149.222 179.446 149.222 179.446 208.149 10.348 208.149 10.348 39.051 179.446 39.051 179.446 97.978Z" fill="#000000" stroke="transparent" data-fill-palette-color="tertiary"></path></svg></g><defs></defs></svg><rect width="395.52" height="247.2" fill="none" stroke="none" visibility="hidden"></rect></g></svg></g></svg>